Coordinates
version=1
nRows=12
nColumns=32
inDegrees=yes

Units are S.I. units (second, meters, Newtons, ...)
If the header above contains a line with 'inDegrees', this indicates whether rotational values are in degrees (yes) or radians (no).

endheader
time	pelvis_tilt	pelvis_list	pelvis_rotation	pelvis_tx	pelvis_ty	pelvis_tz	hip_flexion_r	hip_adduction_r	hip_rotation_r	knee_angle_r	knee_adduction_r	med_cond_adduction_r	lat_cond_adduction_r	patella_r_constrained_knee_angle	ankle_angle_r	subtalar_angle_r	mtp_angle_r	hip_flexion_l	hip_adduction_l	hip_rotation_l	knee_angle_l	knee_adduction_l	med_cond_adduction_l	lat_cond_adduction_l	patella_l_constrained_knee_angle	ankle_angle_l	subtalar_angle_l	mtp_angle_l	lumbar_extension	lumbar_bending	lumbar_rotation
      1.61500000	    -11.44283788	     -2.53864340	     -1.58498074	      0.15192887	      0.52558696	     -1.20130177	     87.00011657	    -46.44139351	     -3.43664163	   -108.04411326	     -9.53936046	      0.00000000	      0.00000000	     -1.88572551	     27.56904936	     19.35915133	      0.00000000	     96.13124208	    -49.25244450	      3.44536304	   -110.59775483	     -9.52452826	      0.00000000	      0.00000000	     -1.93029497	     25.39317340	     19.71418271	      0.00000000	    -23.86851100	      3.75803041	     -4.18044569
      1.62000000	    -11.42785395	     -2.59529895	     -1.57214421	      0.15191825	      0.52410982	     -1.20125312	     87.17821114	    -46.48196295	     -3.35230019	   -108.27683192	     -9.55027281	     -0.00000000	     -0.00000000	     -1.88978722	     27.63064945	     19.35653982	      0.00000000	     96.50494848	    -49.26589746	      3.75671336	   -110.82371895	     -9.53541959	      0.00000000	      0.00000000	     -1.93423879	     25.43993536	     19.71408448	      0.00000000	    -23.96661782	      3.86043521	     -4.12546701
      1.62500000	    -11.40393502	     -2.64938174	     -1.55455400	      0.15189457	      0.52269895	     -1.20116671	     87.34883737	    -46.52932272	     -3.26344348	   -108.51165201	     -9.55790955	      0.00000000	     -0.00000000	     -1.89388560	     27.67850503	     19.35108379	      0.00000000	     96.87219344	    -49.28085847	      4.05910996	   -111.02463680	     -9.54641759	      0.00000000	      0.00000000	     -1.93774546	     25.43910223	     19.71436539	      0.00000000	    -24.09087849	      3.98829802	     -4.00867559
      1.63000000	    -11.38273218	     -2.48738978	     -1.52827073	      0.15189766	      0.52122614	     -1.20093220	     87.82813097	    -46.61365402	     -2.80660284	   -108.78092859	     -9.56640282	     -0.00000000	     -0.00000000	     -1.89858537	     27.76740880	     19.35480122	     -0.00000000	     96.91543067	    -49.28513076	      3.98652331	   -111.22717352	     -9.55875121	     -0.00000000	     -0.00000000	     -1.94128040	     25.46228224	     19.71426064	     -0.00000000	    -24.19084230	      3.71939433	     -4.16696307
      1.63500000	    -11.30545091	     -2.92283370	     -1.51123445	      0.15200810	      0.51999719	     -1.20121856	     87.37535168	    -46.67332190	     -3.42818017	   -108.93448595	     -9.57862742	      0.00000000	      0.00000000	     -1.90126545	     27.75533576	     19.34641392	      0.00000000	     97.73876162	    -49.27478184	      4.95040951	   -111.48156487	     -9.56569315	     -0.00000000	     -0.00000000	     -1.94572036	     25.57743886	     19.71479787	      0.00000000	    -24.37973143	      4.34541921	     -3.96176148
      1.64000000	    -11.33692140	     -2.92859937	     -1.48870293	      0.15194504	      0.51838674	     -1.20109552	     87.70090757	    -46.72144807	     -3.23772135	   -109.20179464	     -9.59265594	      0.00000000	      0.00000000	     -1.90593087	     27.87838816	     19.34490467	      0.00000000	     98.12471013	    -49.25729541	      5.19664607	   -111.69055313	     -9.57444498	      0.00000000	      0.00000000	     -1.94936790	     25.47505074	     19.71602644	      0.00000000	    -24.42578194	      4.32636922	     -4.01910252
      1.64500000	    -11.28251321	     -2.97344744	     -1.48393506	      0.15197752	      0.51706932	     -1.20099925	     87.83327190	    -46.77053219	     -3.14919925	   -109.42193031	     -9.59969202	      0.00000000	      0.00000000	     -1.90977296	     27.93399876	     19.34248358	      0.00000000	     98.41225461	    -49.26505795	      5.48736253	   -111.88874862	     -9.58373288	     -0.00000000	      0.00000000	     -1.95282706	     25.52316102	     19.71586533	     -0.00000000	    -24.56719385	      4.36690439	     -4.00957027
      1.65000000	    -11.29664916	     -2.80736646	     -1.48126422	      0.15192156	      0.51558922	     -1.20069699	     88.36429610	    -46.80507594	     -2.67608950	   -109.68657583	     -9.60393770	      0.00000000	      0.00000000	     -1.91439189	     27.98412303	     19.34365205	      0.00000000	     98.49626762	    -49.29000806	      5.41760215	   -112.07808454	     -9.59267038	     -0.00000000	     -0.00000000	     -1.95613159	     25.54656964	     19.71473311	     -0.00000000	    -24.63276850	      4.02437035	     -4.24034583
      1.65500000	    -11.25528127	     -3.02044471	     -1.47833081	      0.15195828	      0.51425119	     -1.20074409	     88.28679298	    -46.84353488	     -2.88137144	   -109.89675370	     -9.61387488	      0.00000000	      0.00000000	     -1.91806019	     28.02556530	     19.33654564	     -0.00000000	     99.05087489	    -49.27529678	      6.01147651	   -112.30435576	     -9.59946054	     -0.00000000	     -0.00000000	     -1.96008077	     25.58474173	     19.71562581	      0.00000000	    -24.77557892	      4.41780940	     -3.96695855
      1.66000000	    -11.25255536	     -2.93300698	     -1.48957603	      0.15191988	      0.51281688	     -1.20048321	     88.68335341	    -46.85892959	     -2.54643644	   -110.14515770	     -9.61958137	     -0.00000000	     -0.00000000	     -1.92239566	     28.05987159	     19.33457291	      0.00000000	     99.21356787	    -49.29302039	      6.08468518	   -112.49353423	     -9.60878596	     -0.00000000	     -0.00000000	     -1.96338256	     25.63094881	     19.71490135	      0.00000000	    -24.85272168	      4.17128697	     -4.16491491
      1.66500000	    -11.20253411	     -3.11022654	     -1.49379544	      0.15195579	      0.51155480	     -1.20050856	     88.62440147	    -46.89382668	     -2.70286882	   -110.33564176	     -9.62713813	     -0.00000000	     -0.00000000	     -1.92572023	     28.11787589	     19.33164183	     -0.00000000	     99.69112812	    -49.28134825	      6.60792179	   -112.70175164	     -9.61461951	      0.00000000	      0.00000000	     -1.96701664	     25.64296859	     19.71490259	      0.00000000	    -25.01194344	      4.48455265	     -3.94621467
      1.67000000	    -11.16996232	     -3.15521455	     -1.49845270	      0.15198183	      0.51020565	     -1.20038302	     88.79506625	    -46.92572608	     -2.60945597	   -110.56616634	     -9.63361509	      0.00000000	      0.00000000	     -1.92974364	     28.16804143	     19.33033739	      0.00000000	    100.00706080	    -49.27914346	      6.90815798	   -112.90820554	     -9.62308546	     -0.00000000	     -0.00000000	     -1.97061994	     25.67492308	     19.71460788	      0.00000000	    -25.12656082	      4.47779606	     -4.00600317
